<svg width="120" height="120" viewBox="0 0 120 120" fill="none" xmlns="http://www.w3.org/2000/svg">
<g clip-path="url(#clip0_71_14)">
<path d="M100.857 74.0237C98.1674 78.284 93.6585 82.6331 88.9914 85.1183C82.0303 88.8461 73.8827 88.9349 66.6051 86.0947C65.0231 85.4734 63.441 86.8047 62.9664 88.4024C60.1187 97.2781 57.2709 106.154 54.4232 115.03C53.1576 119.024 58.853 120.799 60.1187 116.805C62.9664 107.929 65.8141 99.0532 68.6618 90.1775L65.0231 92.4852C80.1318 98.4319 96.8227 91.8639 105.92 77.3077C108.134 73.7574 102.993 70.4734 100.778 73.9349L100.857 74.0237Z" fill="black"/>
<path d="M50.7845 117.781C52.9202 111.302 57.7456 100.562 55.4516 93.5503C53.1576 86.5385 44.6935 91.8639 40.9756 94.3491C39.0771 95.6805 35.7548 99.2308 33.3817 99.3195C26.737 99.4083 31.6414 93.4615 33.3817 92.2189C35.913 90.2663 38.8398 88.7574 41.6084 87.2485C49.3606 83.1657 57.35 81.9231 65.8141 82.0118C70.9558 82.0118 76.0976 82.6331 81.2393 82.5444C83.6915 82.5444 86.3019 82.5444 88.4377 80.9467C94.3705 76.5976 92.3929 67.0118 86.4601 64.1716C83.3751 62.7515 79.7363 63.1065 76.4931 63.1953C71.6678 63.1953 66.8425 63.3728 61.938 63.3728C54.0277 63.3728 45.7218 63.1953 38.1279 60.2663C33.6981 58.5799 29.3474 55.7396 27.2116 50.858C26.1042 48.3728 25.5504 45.2663 25.7877 42.426C26.3415 36.5681 31.7996 33.1953 36.6249 36.3018C45.0099 41.8935 43.586 59.3787 38.2861 66.0355C32.9862 72.6923 24.8385 80.9467 16.7699 82.7219C3.16414 85.6509 5.77456 63.4615 7.75215 54.5858C12.7357 31.6864 26.737 13.5799 47.5412 8.43195C58.2993 5.76923 71.5096 6.0355 82.3467 8.16568C89.8616 9.5858 96.5854 13.3136 102.439 18.8166C110.27 26.0947 116.045 36.3905 113.434 48.1065C112.169 53.6095 109.4 58.7574 104.258 60.2663C97.2182 62.3077 92.7093 56.716 91.7601 49.4379C91.5228 47.574 91.1272 44.8225 91.7601 42.9586C92.6302 40.7396 95.557 39.8521 96.8227 42.2485C97.6137 43.7574 96.5063 46.9527 95.7152 48.3728C92.9466 53.787 87.9631 52.4556 83.3751 51.3905C70.7976 48.5503 58.4575 45.9763 45.6427 45.1775C41.8458 44.9112 41.8458 51.568 45.6427 51.8343C54.0277 52.3669 62.2545 53.3432 70.4812 55.1183C76.4931 56.3609 82.5841 58.6686 88.7541 58.9349C97.4555 59.3787 105.761 49.1716 102.044 39.2308C100.303 34.6154 95.2406 32.7515 91.2063 34.4379C86.8556 36.213 85.4318 41.1834 85.4318 45.9763C85.4318 57.426 91.681 68.432 102.914 67.1006C113.197 65.9467 118.813 55.3846 119.763 44.645C120.87 32.3965 114.542 21.568 106.473 13.9349C98.8794 6.83432 90.2571 2.30769 80.3692 1.06509C65.9723 -0.798816 49.9143 -1.06509 36.3876 5.32544C14.0013 15.9763 -1.66117 43.8462 0.158212 71.5385C0.870144 83.0769 7.83125 91.7751 18.5893 89.1124C22.8609 88.0473 26.8161 85.2959 30.2966 82.4556C35.2802 78.4615 40.8174 73.6686 44.4562 68.0769C50.3889 58.6686 49.677 44.2012 43.6651 34.9704C36.704 24.2308 21.1206 28.0473 19.855 41.5385C17.0864 70.9172 52.9993 70.2071 69.8484 69.9408C72.617 69.9408 75.4647 69.8521 78.2334 69.8521C80.3692 69.8521 89.4661 70.9172 85.1945 75.2663C84.087 76.4201 81.2393 75.8876 79.8945 75.8876C76.0976 75.7988 72.3797 75.5325 68.5827 75.355C57.6665 75.0888 47.5412 76.5089 37.6533 82.0118C33.1444 84.497 26.8952 87.3373 24.8385 92.929C23.1773 97.4556 24.2848 103.757 28.7146 105.71C32.5115 107.396 36.6249 105.355 39.7891 103.136C41.6875 101.716 43.586 100.296 45.6427 99.0532C46.8293 98.3432 48.174 97.4556 49.4397 97.0118C50.3889 96.6568 50.3098 95.9467 49.677 98.0769C47.9367 104.024 46.9084 110.148 44.9308 116.095C43.586 120.089 49.3606 121.864 50.6262 117.87L50.7845 117.781Z" fill="black"/>
</g>
<defs>
<clipPath id="clip0_71_14">
<rect width="120" height="120" fill="white"/>
</clipPath>
</defs>
</svg>
